<svg xmlns="http://www.w3.org/2000/svg" viewBox="0 0 800 800"><defs><radialGradient id="bg" cx="50%" cy="45%" r="70%"><stop offset="0" stop-color="#E9F6F4"/><stop offset="1" stop-color="#CFEAE6"/></radialGradient><filter id="shadow" x="-30%" y="-30%" width="160%" height="160%"><feDropShadow dx="0" dy="16" stdDeviation="16" flood-color="#0E3B37" flood-opacity=".25"/></filter><linearGradient id="body" x1="0" y1="0" x2="1" y2="1"><stop offset="0" stop-color="#FFFFFF"/><stop offset="1" stop-color="#DCE6E5"/></linearGradient></defs><rect width="800" height="800" fill="url(#bg)"/><circle cx="401" cy="186" r="10" fill="#9FD9D2" opacity="0.75"/><circle cx="314" cy="164" r="10" fill="#9FD9D2" opacity="0.65"/><circle cx="422" cy="214" r="6" fill="#9FD9D2" opacity="0.54"/><circle cx="435" cy="237" r="11" fill="#9FD9D2" opacity="0.39"/><circle cx="413" cy="247" r="7" fill="#9FD9D2" opacity="0.71"/><circle cx="346" cy="211" r="10" fill="#9FD9D2" opacity="0.56"/><circle cx="334" cy="199" r="6" fill="#9FD9D2" opacity="0.53"/><circle cx="564" cy="173" r="7" fill="#9FD9D2" opacity="0.40"/><circle cx="523" cy="189" r="9" fill="#9FD9D2" opacity="0.69"/><circle cx="274" cy="170" r="11" fill="#9FD9D2" opacity="0.65"/><circle cx="423" cy="177" r="11" fill="#9FD9D2" opacity="0.39"/><circle cx="316" cy="165" r="8" fill="#9FD9D2" opacity="0.79"/><circle cx="507" cy="175" r="13" fill="#9FD9D2" opacity="0.79"/><circle cx="340" cy="245" r="8" fill="#9FD9D2" opacity="0.65"/><circle cx="258" cy="186" r="7" fill="#9FD9D2" opacity="0.71"/><circle cx="437" cy="246" r="9" fill="#9FD9D2" opacity="0.61"/><circle cx="299" cy="194" r="5" fill="#9FD9D2" opacity="0.57"/><circle cx="480" cy="185" r="8" fill="#9FD9D2" opacity="0.50"/><g transform="translate(400 450) rotate(0) scale(1.05)" filter="url(#shadow)"><rect x="-110" y="-190" width="220" height="330" rx="100" fill="url(#body)"/><rect x="-92" y="-176" width="184" height="150" rx="80" fill="#1F8A84"/><circle cx="-30" cy="-150" r="7" fill="#F4FBFA"/><circle cx="0" cy="-150" r="7" fill="#F4FBFA"/><circle cx="30" cy="-150" r="7" fill="#F4FBFA"/><circle cx="-60" cy="-120" r="7" fill="#F4FBFA"/><circle cx="-30" cy="-120" r="7" fill="#F4FBFA"/><circle cx="0" cy="-120" r="7" fill="#F4FBFA"/><circle cx="30" cy="-120" r="7" fill="#F4FBFA"/><circle cx="60" cy="-120" r="7" fill="#F4FBFA"/><circle cx="-60" cy="-90" r="7" fill="#F4FBFA"/><circle cx="-30" cy="-90" r="7" fill="#F4FBFA"/><circle cx="0" cy="-90" r="7" fill="#F4FBFA"/><circle cx="30" cy="-90" r="7" fill="#F4FBFA"/><circle cx="60" cy="-90" r="7" fill="#F4FBFA"/><circle cx="-30" cy="-60" r="7" fill="#F4FBFA"/><circle cx="0" cy="-60" r="7" fill="#F4FBFA"/><circle cx="30" cy="-60" r="7" fill="#F4FBFA"/><rect x="-34" y="0" width="68" height="40" rx="12" fill="#BFE3DF" stroke="#1F8A84" stroke-width="3"/><rect x="-26" y="18" width="52" height="16" rx="6" fill="#7CC9C1"/><circle cx="0" cy="88" r="20" fill="#1F8A84"/><path d="M0 76 v10" stroke="#fff" stroke-width="5" stroke-linecap="round"/><path d="M-9 82 a11 11 0 1 0 18 0" fill="none" stroke="#fff" stroke-width="4" stroke-linecap="round"/></g></svg>