<svg xmlns="http://www.w3.org/2000/svg" viewBox="0 0 800 800"><defs><radialGradient id="bg" cx="50%" cy="45%" r="70%"><stop offset="0" stop-color="#E9F6F4"/><stop offset="1" stop-color="#CFEAE6"/></radialGradient><filter id="shadow" x="-30%" y="-30%" width="160%" height="160%"><feDropShadow dx="0" dy="16" stdDeviation="16" flood-color="#0E3B37" flood-opacity=".25"/></filter><linearGradient id="body" x1="0" y1="0" x2="1" y2="1"><stop offset="0" stop-color="#FFFFFF"/><stop offset="1" stop-color="#DCE6E5"/></linearGradient></defs><rect width="800" height="800" fill="url(#bg)"/><g font-family="Arial,Helvetica,sans-serif" font-weight="700" text-anchor="middle" font-size="34" fill="#1F8A84"><text x="400" y="110">Fine water mist</text></g><circle cx="475" cy="273" r="6" fill="#9FD9D2" opacity="0.40"/><circle cx="519" cy="262" r="6" fill="#9FD9D2" opacity="0.58"/><circle cx="480" cy="280" r="6" fill="#9FD9D2" opacity="0.55"/><circle cx="642" cy="297" r="7" fill="#9FD9D2" opacity="0.66"/><circle cx="334" cy="298" r="8" fill="#9FD9D2" opacity="0.57"/><circle cx="502" cy="308" r="6" fill="#9FD9D2" opacity="0.43"/><circle cx="622" cy="232" r="8" fill="#9FD9D2" opacity="0.59"/><circle cx="644" cy="287" r="7" fill="#9FD9D2" opacity="0.38"/><circle cx="563" cy="295" r="9" fill="#9FD9D2" opacity="0.62"/><circle cx="528" cy="317" r="11" fill="#9FD9D2" opacity="0.68"/><circle cx="453" cy="290" r="7" fill="#9FD9D2" opacity="0.57"/><circle cx="448" cy="227" r="8" fill="#9FD9D2" opacity="0.40"/><circle cx="410" cy="234" r="11" fill="#9FD9D2" opacity="0.68"/><circle cx="462" cy="266" r="8" fill="#9FD9D2" opacity="0.53"/><circle cx="638" cy="325" r="9" fill="#9FD9D2" opacity="0.44"/><circle cx="463" cy="278" r="12" fill="#9FD9D2" opacity="0.37"/><circle cx="443" cy="273" r="7" fill="#9FD9D2" opacity="0.39"/><circle cx="627" cy="324" r="9" fill="#9FD9D2" opacity="0.49"/><circle cx="322" cy="267" r="11" fill="#9FD9D2" opacity="0.36"/><circle cx="575" cy="294" r="12" fill="#9FD9D2" opacity="0.55"/><circle cx="488" cy="287" r="10" fill="#9FD9D2" opacity="0.70"/><circle cx="577" cy="285" r="10" fill="#9FD9D2" opacity="0.73"/><circle cx="537" cy="246" r="11" fill="#9FD9D2" opacity="0.68"/><circle cx="647" cy="297" r="6" fill="#9FD9D2" opacity="0.46"/><g transform="translate(330 470) rotate(-18) scale(0.95)" filter="url(#shadow)"><rect x="-110" y="-190" width="220" height="330" rx="100" fill="url(#body)"/><rect x="-92" y="-176" width="184" height="150" rx="80" fill="#1F8A84"/><circle cx="-30" cy="-150" r="7" fill="#F4FBFA"/><circle cx="0" cy="-150" r="7" fill="#F4FBFA"/><circle cx="30" cy="-150" r="7" fill="#F4FBFA"/><circle cx="-60" cy="-120" r="7" fill="#F4FBFA"/><circle cx="-30" cy="-120" r="7" fill="#F4FBFA"/><circle cx="0" cy="-120" r="7" fill="#F4FBFA"/><circle cx="30" cy="-120" r="7" fill="#F4FBFA"/><circle cx="60" cy="-120" r="7" fill="#F4FBFA"/><circle cx="-60" cy="-90" r="7" fill="#F4FBFA"/><circle cx="-30" cy="-90" r="7" fill="#F4FBFA"/><circle cx="0" cy="-90" r="7" fill="#F4FBFA"/><circle cx="30" cy="-90" r="7" fill="#F4FBFA"/><circle cx="60" cy="-90" r="7" fill="#F4FBFA"/><circle cx="-30" cy="-60" r="7" fill="#F4FBFA"/><circle cx="0" cy="-60" r="7" fill="#F4FBFA"/><circle cx="30" cy="-60" r="7" fill="#F4FBFA"/><rect x="-34" y="0" width="68" height="40" rx="12" fill="#BFE3DF" stroke="#1F8A84" stroke-width="3"/><rect x="-26" y="18" width="52" height="16" rx="6" fill="#7CC9C1"/><circle cx="0" cy="88" r="20" fill="#1F8A84"/><path d="M0 76 v10" stroke="#fff" stroke-width="5" stroke-linecap="round"/><path d="M-9 82 a11 11 0 1 0 18 0" fill="none" stroke="#fff" stroke-width="4" stroke-linecap="round"/></g></svg>